<?xml version="1.0" encoding="UTF-8" standalone="no"?>
<!-- Created with Inkscape (http://www.inkscape.org/) -->

<svg
   version="1.1"
   id="svg2"
   xml:space="preserve"
   width="288"
   height="50"
   viewBox="0 0 288 50"
   sodipodi:docname="logo-claro-microsyscom.svg"
   inkscape:version="1.1.2 (0a00cf5339, 2022-02-04)"
   xmlns:inkscape="http://www.inkscape.org/namespaces/inkscape"
   xmlns:sodipodi="http://sodipodi.sourceforge.net/DTD/sodipodi-0.dtd"
   xmlns="http://www.w3.org/2000/svg"
   xmlns:svg="http://www.w3.org/2000/svg"><defs
     id="defs6"><clipPath
       clipPathUnits="userSpaceOnUse"
       id="clipPath16"><path
         d="M 0,2814 H 12765 V 0 H 0 Z"
         id="path14" /></clipPath></defs><sodipodi:namedview
     id="namedview4"
     pagecolor="#ffffff"
     bordercolor="#666666"
     borderopacity="1.0"
     inkscape:pageshadow="2"
     inkscape:pageopacity="0.0"
     inkscape:pagecheckerboard="0"
     showgrid="false"
     inkscape:zoom="5.6065804"
     inkscape:cx="-9.9882631"
     inkscape:cy="27.467724"
     inkscape:window-width="1920"
     inkscape:window-height="1029"
     inkscape:window-x="0"
     inkscape:window-y="27"
     inkscape:window-maximized="1"
     inkscape:current-layer="g18" /><g
     id="g8"
     inkscape:groupmode="layer"
     inkscape:label="Nuevo LOGO MICROSYSCOM"
     transform="matrix(1.3333333,0,0,-1.3333333,0,3752)"><g
       id="g10"><g
         id="g12"
         clip-path="url(#clipPath16)"><g
           id="g1046"
           transform="matrix(0.01794428,0,0,0.01794428,-6.4544937,2770.5964)"><g
             id="g18"
             transform="translate(467.6392,1191.6074)"><path
               d="m 0,0 c 136.981,-204.872 381.537,-341.398 660.371,-341.398 273.235,0 513.572,131.073 651.987,329.165 C 1113.081,-79.752 898.12,-117.035 673.61,-117.035 435.959,-117.035 208.963,-75.263 0,0 M 1398.816,603.809 C 1174.017,485.157 914.05,417.335 636.955,417.335 c -260.797,0 -506.369,60.148 -721.837,166.141 -20.488,-64.584 -31.559,-132.817 -31.559,-203.515 0,-28.53 6.212,-85.887 9.683,-113.546 232.599,-107.502 489.291,-139.278 764.323,-139.278 277.335,0 540.455,62.096 774.672,171.336 3.201,26.756 4.929,53.921 4.929,81.488 0,78.138 -13.566,153.37 -38.35,223.848 M 1214,885.74 c -82.477,77.842 -183.808,138.422 -297.21,175.211 -82.285,-29.144 -169.764,-45.465 -259.225,-45.465 -88.516,0 -175.04,15.956 -256.562,44.533 C 281.271,1020.628 175.138,954.769 90.558,870.042 253.422,789.197 439.402,743.338 636.955,743.338 c 210.054,0 407.04,51.82 577.045,142.402"
               style="fill:#cccccc;fill-opacity:1;fill-rule:evenodd;stroke:none"
               id="path20" /></g><g
             id="g22"
             transform="translate(1329.459,1407.0742)"
             style="fill:#ffffff"><path
               d="m 0,0 c 177.638,199.889 294.176,429.939 352.417,669.446 -2.466,2.602 -5.011,5.143 -7.542,7.729 C 264.566,750.898 167.237,808.316 59.172,844.127 21.884,615.062 -81.579,391.534 -253.817,197.742 -424.256,6.036 -637.552,-128.965 -868.489,-205.411 -807.557,-299.99 -724.034,-380.266 -625.146,-440.095 -389.63,-342.914 -174.236,-195.991 0,0 m -475.819,370.784 c 136.425,153.499 217.828,331.676 246.944,514.463 -2.801,-0.06 -5.529,-0.121 -8.338,-0.242 -115.967,-4.96 -224.795,-33.324 -321.459,-79.904 -32.616,-91.69 -83.714,-179.573 -154.128,-258.764 -68.335,-76.871 -148.587,-138.482 -235.977,-184.691 -22.275,-72.964 -32.612,-150.419 -28.642,-230.361 1.364,-27.257 4.365,-53.982 8.841,-80.337 185.572,60.118 357.003,167.15 492.759,319.836 M 574.513,197.659 C 571.148,265.884 557.672,331.455 535.461,393.111 464.549,183.629 356.95,-21.243 210.695,-185.761 60.373,-354.845 -130.541,-479.843 -311.053,-549.705 c 47.296,-6.234 95.85,-8.494 145.356,-6.356 428.528,18.338 759.958,355.799 740.21,753.72"
               style="fill:#ffffff;fill-opacity:1;fill-rule:evenodd;stroke:none"
               id="path24" /></g><g
             id="g26"
             transform="translate(8009.7939,709.0664)"><path
               d="m 0,0 c 0,10.873 -3.205,19.914 -9.599,27.106 -6.392,7.193 -14.271,10.801 -23.62,10.801 h -22.925 c -9.364,0 -17.316,-3.689 -23.863,-11.059 C -86.561,19.478 -89.83,10.525 -89.83,0 v -155.83 c 0,-10.526 3.269,-19.487 9.823,-26.85 6.547,-7.378 14.499,-11.058 23.863,-11.058 h 22.925 c 9.349,0 17.228,3.599 23.62,10.792 6.394,7.192 9.599,16.234 9.599,27.116 z m 46.779,-193.997 c -4.198,-11.415 -10.009,-21.246 -17.452,-29.481 -7.451,-8.249 -16.533,-14.579 -27.236,-18.954 -10.704,-4.39 -22.571,-6.587 -35.6,-6.587 h -22.812 c -13.03,0 -24.896,2.197 -35.6,6.587 -10.704,4.375 -19.858,10.705 -27.462,18.954 -7.604,8.235 -13.425,18.066 -17.453,29.481 -4.036,11.398 -6.055,24.121 -6.055,38.167 V 0 c 0,14.029 2.1,26.751 6.282,38.165 4.197,11.398 10.008,21.143 17.46,29.223 7.451,8.064 16.524,14.384 27.228,18.954 10.704,4.553 22.57,6.837 35.6,6.837 h 22.812 c 13.029,0 24.896,-2.284 35.6,-6.837 C 12.794,81.772 21.876,75.452 29.327,67.388 36.77,59.308 42.581,49.563 46.779,38.165 50.961,26.751 53.06,14.029 53.06,0 v -155.83 c 0,-14.046 -2.099,-26.769 -6.281,-38.167"
               style="fill:#f9f9f9;fill-opacity:1;fill-rule:nonzero;stroke:none"
               id="path28" /></g><g
             id="g30"
             transform="translate(8283.0361,465.3115)"><path
               d="m 0,0 h -43.832 c -3.085,0 -4.618,1.76 -4.618,5.263 v 143.205 c 0,10.525 -3.123,19.389 -9.363,26.582 -6.265,7.192 -14.224,10.793 -23.912,10.793 -9.993,0 -18.123,-3.601 -24.37,-10.793 -6.257,-7.193 -9.372,-16.057 -9.372,-26.582 V 5.263 C -115.467,1.76 -117.025,0 -120.116,0 h -43.753 c -3.109,0 -4.658,1.76 -4.658,5.263 v 230.596 c 0,3.503 1.549,5.264 4.658,5.264 h 39.555 c 1.864,0 3.099,-0.533 3.729,-1.583 0.613,-1.05 1.082,-2.293 1.389,-3.681 0.306,-1.404 0.63,-2.631 0.936,-3.689 0.307,-1.057 0.937,-1.573 1.857,-1.573 1.243,0 2.954,0.516 5.126,1.573 2.171,1.058 4.802,2.285 7.91,3.689 3.099,1.388 6.749,2.631 10.938,3.681 4.19,1.05 8.912,1.583 14.192,1.583 11.794,0 22.732,-2.293 32.822,-6.846 10.074,-4.569 18.842,-10.881 26.292,-18.954 7.451,-8.073 13.263,-17.816 17.453,-29.222 4.19,-11.406 6.288,-23.951 6.288,-37.633 V 5.263 C 4.618,1.76 3.068,0 0,0"
               style="fill:#ffffff;fill-opacity:1;fill-rule:nonzero;stroke:none"
               id="path32" /></g><g
             id="g34"
             transform="translate(8453.8008,626.4121)"><path
               d="m 0,0 c 0,3.504 -0.864,7.016 -2.584,10.526 -1.711,3.504 -4.133,6.757 -7.265,9.745 -3.124,2.97 -6.635,5.343 -10.543,7.103 -3.906,1.752 -7.894,2.631 -11.955,2.631 -9.064,0 -16.799,-3.245 -23.208,-9.734 -6.401,-6.507 -9.606,-13.433 -9.606,-20.795 0,-3.165 1.566,-4.747 4.699,-4.747 H -4.683 C -1.566,-5.271 0,-3.512 0,0 M 49.791,-55.804 H -61.415 c -3.116,0 -4.674,-1.759 -4.674,-5.264 v -12.108 c 0,-10.526 3.124,-19.487 9.372,-26.849 6.256,-7.378 14.385,-11.059 24.387,-11.059 6.869,0 12.568,2.106 17.113,6.313 4.529,4.213 8.823,10.534 12.892,18.954 2.794,6.667 5.118,10.008 6.982,10.008 0.929,0 1.704,-0.184 2.325,-0.532 l 40.5,-22.635 c 1.857,-1.049 2.793,-2.454 2.793,-4.213 0,-2.81 -1.792,-7.637 -5.36,-14.474 -3.568,-6.846 -9.389,-15.007 -17.453,-24.484 -13.658,-16.145 -33.508,-24.217 -59.574,-24.217 -13.029,0 -24.896,2.196 -35.6,6.587 -10.712,4.375 -19.866,10.705 -27.462,18.954 -7.612,8.234 -13.497,18.065 -17.695,29.48 -4.181,11.399 -6.279,24.121 -6.279,38.167 v 65.274 c 0,8.071 1.081,16.403 3.26,25.007 2.163,8.598 5.424,16.404 9.768,23.427 8.379,14.385 19.003,25.445 31.887,33.169 12.867,7.717 26.913,11.584 42.121,11.584 14.893,0 28.85,-3.867 41.887,-11.584 13.037,-7.724 23.58,-18.784 31.652,-33.169 4.344,-7.023 7.596,-14.829 9.768,-23.427 2.172,-8.604 3.261,-16.936 3.261,-25.007 v -42.639 c 0,-3.512 -1.55,-5.263 -4.665,-5.263"
               style="fill:#f9f9f9;fill-opacity:1;fill-rule:nonzero;stroke:none"
               id="path36" /></g><g
             id="g38"
             transform="translate(8757.7266,613.7793)"><path
               d="m 0,0 c 0,10.525 -3.132,19.39 -9.38,26.582 -6.248,7.192 -14.216,10.793 -23.902,10.793 -10.001,0 -18.122,-3.601 -24.37,-10.793 C -63.901,19.39 -67.024,10.525 -67.024,0 v -55.28 c 0,-10.527 3.204,-19.479 9.605,-26.849 6.401,-7.37 14.45,-11.059 24.137,-11.059 9.686,0 17.654,3.6 23.902,10.792 6.248,7.194 9.38,16.234 9.38,27.116 z m 47.006,-92.397 c -4.036,-11.415 -9.703,-21.239 -16.992,-29.48 -7.29,-8.251 -15.984,-14.74 -26.058,-19.479 -10.091,-4.739 -21.183,-7.112 -33.283,-7.112 -8.37,0 -15.443,1.76 -21.174,5.263 -5.747,3.512 -10.171,5.271 -13.27,5.271 -2.171,0 -3.253,-1.929 -3.253,-5.788 v -117.929 c 0,-3.503 -1.559,-5.263 -4.659,-5.263 h -43.752 c -3.099,0 -4.649,1.76 -4.649,5.263 V 87.392 c 0,3.503 1.55,5.263 4.649,5.263 h 39.571 c 1.551,0 2.632,-0.533 3.253,-1.583 0.622,-1.05 1.09,-2.293 1.397,-3.68 0.307,-1.405 0.694,-2.632 1.162,-3.69 0.468,-1.056 1.162,-1.573 2.099,-1.573 2.478,0 6.812,1.743 13.029,5.263 6.199,3.503 14.578,5.263 25.137,5.263 11.786,0 22.716,-2.196 32.807,-6.588 C 13.103,81.677 21.877,75.363 29.319,67.114 36.763,58.863 42.583,49.039 46.771,37.633 50.961,26.228 53.053,13.683 53.053,0 v -55.28 c 0,-13.344 -2.019,-25.719 -6.047,-37.117"
               style="fill:#ffffff;fill-opacity:1;fill-rule:nonzero;stroke:none"
               id="path40" /></g><g
             id="g42"
             transform="translate(8971.8154,640.6279)"><path
               d="m 0,0 c -3.108,0 -7.063,1.743 -11.874,5.264 -4.812,3.503 -10.462,5.262 -16.984,5.262 -9.002,0 -16.598,-3.616 -22.805,-10.825 -6.208,-7.208 -9.309,-15.927 -9.309,-26.13 v -143.609 c 0,-3.519 -1.556,-5.278 -4.649,-5.278 h -43.752 c -3.107,0 -4.658,1.759 -4.658,5.262 V 60.543 c 0,3.503 1.551,5.264 4.658,5.264 h 39.555 c 3.099,0 4.658,-1.583 4.658,-4.747 v -7.362 c 0,-3.165 1.395,-4.925 4.188,-5.264 l 2.794,1.575 c 12.101,10.534 23.895,15.798 35.373,15.798 8.065,0 14.425,-0.872 19.083,-2.617 4.65,-1.743 6.976,-3.987 6.976,-6.772 V 5.788 C 3.254,1.921 2.172,0 0,0"
               style="fill:#ffffff;fill-opacity:1;fill-rule:nonzero;stroke:none"
               id="path44" /></g><g
             id="g46"
             transform="translate(9113.3086,618.5098)"><path
               d="m 0,0 c 0,10.534 -3.229,19.486 -9.679,26.849 -6.458,7.378 -14.392,11.058 -23.83,11.058 -10.074,0 -18.251,-3.68 -24.54,-11.058 C -64.346,19.486 -67.493,10.534 -67.493,0 v -65.273 c 0,-10.527 3.147,-19.488 9.444,-26.85 6.289,-7.378 14.466,-11.059 24.54,-11.059 9.438,0 17.372,3.681 23.83,11.059 C -3.229,-84.761 0,-75.8 0,-65.273 Z m 46.78,-103.44 c -4.198,-11.415 -10.01,-21.247 -17.461,-29.481 -7.451,-8.249 -16.524,-14.579 -27.228,-18.954 -10.704,-4.391 -22.57,-6.587 -35.6,-6.587 -13.037,0 -24.903,2.196 -35.606,6.587 -10.713,4.375 -19.866,10.705 -27.463,18.954 -7.612,8.234 -13.497,18.066 -17.687,29.481 -4.19,11.398 -6.28,24.121 -6.28,38.167 V 0 c 0,14.037 2.09,26.769 6.28,38.166 4.19,11.406 10.075,21.15 17.687,29.222 7.597,8.073 16.75,14.385 27.463,18.954 10.703,4.554 22.569,6.846 35.606,6.846 13.03,0 24.896,-2.292 35.6,-6.846 C 12.795,81.773 21.868,75.461 29.319,67.388 36.77,59.316 42.582,49.572 46.78,38.166 50.961,26.769 53.06,14.037 53.06,0 v -65.273 c 0,-14.046 -2.099,-26.769 -6.28,-38.167"
               style="fill:#ffffff;fill-opacity:1;fill-rule:nonzero;stroke:none"
               id="path48" /></g><g
             id="g50"
             transform="translate(9307.3936,468.4756)"><path
               d="M 0,0 C -0.937,-2.107 -2.325,-3.164 -4.189,-3.164 H -37.698 C -39.264,-2.81 -40.652,-1.76 -41.896,0 l -82.371,230.58 c -0.621,1.404 -0.936,2.454 -0.936,3.164 0,2.81 1.711,4.215 5.118,4.215 h 47.014 c 1.235,-0.711 2.632,-1.761 4.181,-3.165 10.866,-32.637 20.408,-60.98 28.625,-85.019 8.217,-24.04 14.966,-43.962 20.245,-59.752 8.073,24.217 14.822,45.537 20.246,63.966 5.425,18.421 10.083,33.865 13.965,46.32 3.875,12.463 7.056,21.852 9.542,28.172 2.487,6.313 4.956,9.478 7.443,9.478 h 47.481 c 3.407,0 5.119,-1.405 5.119,-4.215 0,-0.71 -0.315,-1.76 -0.936,-3.164 z"
               style="fill:#ffffff;fill-opacity:1;fill-rule:nonzero;stroke:none"
               id="path52" /></g><g
             id="g54"
             transform="translate(9461.916,465.3115)"><path
               d="m 0,0 h -43.753 c -3.107,0 -4.657,1.76 -4.657,5.263 v 230.596 c 0,3.503 1.55,5.264 4.657,5.264 H 0 c 3.092,0 4.65,-1.761 4.65,-5.264 V 5.263 C 4.65,1.76 3.092,0 0,0 m 9.3,301.666 c 0,-9.478 -3.1,-17.728 -9.3,-24.75 -6.216,-7.023 -13.497,-10.527 -21.876,-10.527 -8.694,0 -16.064,3.423 -22.11,10.268 -6.047,6.845 -9.082,15.177 -9.082,25.009 0,9.815 3.035,18.163 9.082,25.008 6.046,6.838 13.416,10.26 22.11,10.26 8.379,0 15.66,-3.511 21.876,-10.526 6.2,-7.031 9.3,-15.265 9.3,-24.742"
               style="fill:#ffffff;fill-opacity:1;fill-rule:nonzero;stroke:none"
               id="path56" /></g><g
             id="g58"
             transform="translate(9630.8711,613.7793)"><path
               d="m 0,0 c 0,10.525 -3.155,19.39 -9.444,26.582 -6.297,7.192 -14.321,10.793 -24.073,10.793 -10.066,0 -18.243,-3.601 -24.539,-10.793 C -64.353,19.39 -67.493,10.525 -67.493,0 v -55.28 c 0,-10.882 3.14,-19.922 9.437,-27.116 6.296,-7.192 14.473,-10.792 24.539,-10.792 9.752,0 17.776,3.6 24.073,10.792 C -3.155,-75.202 0,-66.162 0,-55.28 Z M 48.443,-148.468 H 9.235 c -1.856,0 -3.084,0.532 -3.697,1.582 -0.613,1.049 -1.001,2.277 -1.145,3.681 -0.163,1.404 -0.388,2.632 -0.695,3.689 -0.306,1.057 -1.082,1.582 -2.309,1.582 -2.81,0 -7.16,-1.759 -13.077,-5.271 -5.926,-3.503 -14.175,-5.263 -24.766,-5.263 -12.142,0 -23.362,2.284 -33.647,6.845 -10.284,4.561 -19.147,10.882 -26.623,18.954 -7.474,8.072 -13.319,17.905 -17.516,29.481 -4.214,11.584 -6.313,24.217 -6.313,37.908 V 0 c 0,13.335 2.019,25.613 6.071,36.842 4.051,11.237 9.743,20.972 17.065,29.222 7.313,8.249 15.806,14.741 25.46,19.487 9.654,4.73 20.092,7.104 31.312,7.104 9.97,0 18.067,-1.76 24.299,-5.263 6.224,-3.52 10.582,-5.263 13.085,-5.263 2.163,0 3.261,1.921 3.261,5.779 v 90.032 c 0,3.503 1.534,5.263 4.602,5.263 h 43.841 c 3.068,0 4.61,-1.76 4.61,-5.263 v -321.145 c 0,-3.503 -1.542,-5.263 -4.61,-5.263"
               style="fill:#ffffff;fill-opacity:1;fill-rule:nonzero;stroke:none"
               id="path60" /></g><g
             id="g62"
             transform="translate(9849.6182,626.4121)"><path
               d="m 0,0 c 0,3.504 -0.872,7.016 -2.584,10.526 -1.719,3.504 -4.141,6.757 -7.265,9.745 -3.131,2.97 -6.643,5.343 -10.543,7.103 -3.922,1.752 -7.903,2.631 -11.962,2.631 -9.058,0 -16.799,-3.245 -23.201,-9.734 -6.409,-6.507 -9.606,-13.433 -9.606,-20.795 0,-3.165 1.558,-4.747 4.682,-4.747 h 55.78 C -1.566,-5.271 0,-3.512 0,0 M 49.782,-55.804 H -61.431 c -3.108,0 -4.667,-1.759 -4.667,-5.264 v -12.108 c 0,-10.526 3.117,-19.487 9.381,-26.849 6.247,-7.378 14.369,-11.059 24.379,-11.059 6.877,0 12.576,2.106 17.113,6.313 4.529,4.213 8.831,10.534 12.892,18.954 2.793,6.667 5.126,10.008 6.982,10.008 0.928,0 1.696,-0.184 2.325,-0.532 l 40.492,-22.635 c 1.864,-1.049 2.793,-2.454 2.793,-4.213 0,-2.81 -1.792,-7.637 -5.353,-14.474 -3.567,-6.846 -9.387,-15.007 -17.452,-24.484 -13.659,-16.145 -33.509,-24.217 -59.574,-24.217 -13.037,0 -24.903,2.196 -35.609,6.587 -10.703,4.375 -19.857,10.705 -27.461,18.954 -7.604,8.234 -13.498,18.065 -17.679,29.48 -4.197,11.399 -6.288,24.121 -6.288,38.167 v 65.274 c 0,8.071 1.09,16.403 3.261,25.007 2.171,8.598 5.424,16.404 9.776,23.427 8.379,14.385 19.002,25.445 31.878,33.169 12.876,7.717 26.922,11.584 42.122,11.584 14.893,0 28.858,-3.867 41.887,-11.584 13.029,-7.724 23.58,-18.784 31.652,-33.169 4.336,-7.023 7.597,-14.829 9.776,-23.427 2.163,-8.604 3.253,-16.936 3.253,-25.007 v -42.639 c 0,-3.512 -1.558,-5.263 -4.666,-5.263"
               style="fill:#ffffff;fill-opacity:1;fill-rule:nonzero;stroke:none"
               id="path64" /></g><g
             id="g66"
             transform="translate(10065.104,640.6279)"><path
               d="m 0,0 c -3.101,0 -7.057,1.743 -11.867,5.264 -4.811,3.503 -10.47,5.262 -16.985,5.262 -9.008,0 -16.605,-3.616 -22.812,-10.825 -6.208,-7.208 -9.299,-15.927 -9.299,-26.13 v -143.609 c 0,-3.519 -1.566,-5.278 -4.658,-5.278 h -43.753 c -3.108,0 -4.658,1.759 -4.658,5.262 V 60.543 c 0,3.503 1.55,5.264 4.658,5.264 h 39.562 c 3.1,0 4.651,-1.583 4.651,-4.747 v -7.362 c 0,-3.165 1.404,-4.925 4.198,-5.264 l 2.792,1.575 c 12.093,10.534 23.887,15.798 35.373,15.798 8.058,0 14.418,-0.872 19.076,-2.617 4.658,-1.743 6.983,-3.987 6.983,-6.772 V 5.788 C 3.261,1.921 2.171,0 0,0"
               style="fill:#ffffff;fill-opacity:1;fill-rule:nonzero;stroke:none"
               id="path68" /></g><g
             id="g70"
             transform="translate(10223.807,329)"><path
               d="m 0,0 h -32.58 c -3.1,0 -4.649,2.971 -4.649,8.944 v 545.938 c 0,5.958 1.549,8.944 4.649,8.944 H 0 c 3.1,0 4.658,-2.986 4.658,-8.944 V 8.944 C 4.658,2.971 3.1,0 0,0"
               style="fill:#ffffff;fill-opacity:1;fill-rule:nonzero;stroke:none"
               id="path72" /></g><g
             id="g74"
             transform="translate(10424.632,736.1729)"><path
               d="m 0,0 c -6.676,-7.192 -10.01,-16.233 -10.01,-27.106 0,-6.322 1.316,-11.585 3.956,-15.79 2.631,-4.215 6.28,-8.089 10.938,-11.592 4.658,-3.504 10.308,-6.927 16.993,-10.261 6.667,-3.342 14.029,-7.111 22.102,-11.325 12.416,-6.313 23.2,-13.077 32.354,-20.262 9.146,-7.2 16.75,-15.007 22.797,-23.426 6.054,-8.428 10.551,-17.824 13.496,-28.173 2.955,-10.349 4.425,-22.022 4.425,-35.002 0,-14.045 -2.019,-26.768 -6.047,-38.167 -4.036,-11.415 -9.857,-21.246 -17.452,-29.48 -7.613,-8.249 -16.759,-14.579 -27.463,-18.954 -10.704,-4.391 -22.578,-6.587 -35.608,-6.587 H 11.866 c -26.381,0 -46.545,8.25 -60.511,24.75 -7.749,9.122 -13.254,17.105 -16.515,23.951 -3.261,6.837 -4.892,11.664 -4.892,14.474 0,1.405 0.937,2.632 2.793,3.688 l 40.49,22.636 c 0.623,0.347 1.406,0.524 2.333,0.524 1.543,0 2.793,-1.307 3.722,-3.947 0.937,-2.632 2.632,-6.579 5.118,-11.843 2.487,-5.618 6.362,-10.186 11.641,-13.69 5.271,-3.511 10.543,-5.263 15.821,-5.263 h 18.615 c 8.994,0 16.832,3.681 23.507,11.059 6.668,7.362 10.01,16.323 10.01,26.849 0,12.98 -4.504,22.893 -13.497,29.739 -9.009,6.845 -21.109,14.303 -36.31,22.377 -12.722,7.022 -23.894,13.949 -33.508,20.794 -9.622,6.845 -17.687,14.215 -24.202,22.119 -6.513,7.894 -11.405,16.75 -14.668,26.574 -3.251,9.832 -4.875,21.23 -4.875,34.228 0,14.029 2.091,26.751 6.281,38.165 4.181,11.398 10.01,21.142 17.453,29.222 7.442,8.065 16.516,14.385 27.22,18.954 10.712,4.553 22.578,6.837 35.615,6.837 h 6.974 c 21.102,0 38.781,-5.788 53.06,-17.371 4.658,-3.867 8.759,-7.984 12.335,-12.375 3.561,-4.391 6.668,-8.774 9.308,-13.158 2.631,-4.392 4.658,-8.348 6.053,-11.851 1.389,-3.503 2.092,-5.965 2.092,-7.361 0,-1.76 -0.929,-3.165 -2.786,-4.215 L 70.044,-22.894 c -0.621,-0.354 -1.396,-0.532 -2.324,-0.532 -1.243,0 -2.172,0.702 -2.793,2.108 -0.622,1.395 -1.711,3.333 -3.254,5.787 -4.359,8.427 -8.847,14.918 -13.497,19.487 -4.665,4.552 -10.558,6.845 -17.695,6.845 H 23.507 C 14.498,10.801 6.668,7.192 0,0"
               style="fill:#ffffff;fill-opacity:1;fill-rule:nonzero;stroke:none"
               id="path76" /></g><g
             id="g78"
             transform="translate(10697.593,618.5098)"><path
               d="m 0,0 c 0,10.534 -3.229,19.486 -9.688,26.849 -6.441,7.378 -14.384,11.058 -23.829,11.058 -10.058,0 -18.243,-3.68 -24.532,-11.058 C -64.346,19.486 -67.485,10.534 -67.485,0 v -65.273 c 0,-10.527 3.139,-19.488 9.436,-26.85 6.289,-7.378 14.474,-11.059 24.532,-11.059 9.445,0 17.388,3.681 23.829,11.059 C -3.229,-84.761 0,-75.8 0,-65.273 Z m 46.771,-103.44 c -4.181,-11.415 -10.01,-21.247 -17.452,-29.481 -7.443,-8.249 -16.516,-14.579 -27.22,-18.954 -10.712,-4.391 -22.579,-6.587 -35.616,-6.587 -13.029,0 -24.895,2.196 -35.599,6.587 -10.704,4.375 -19.859,10.705 -27.462,18.954 -7.605,8.234 -13.497,18.066 -17.688,29.481 -4.189,11.398 -6.288,24.121 -6.288,38.167 V 0 c 0,14.037 2.099,26.769 6.288,38.166 4.191,11.406 10.083,21.15 17.688,29.222 7.603,8.073 16.758,14.385 27.462,18.954 10.704,4.554 22.57,6.846 35.599,6.846 13.037,0 24.904,-2.292 35.616,-6.846 C 12.803,81.773 21.876,75.461 29.319,67.388 36.761,59.316 42.59,49.572 46.771,38.166 50.961,26.769 53.052,14.037 53.052,0 v -65.273 c 0,-14.046 -2.091,-26.769 -6.281,-38.167"
               style="fill:#ffffff;fill-opacity:1;fill-rule:nonzero;stroke:none"
               id="path80" /></g><g
             id="g82"
             transform="translate(10846.06,465.3115)"><path
               d="m 0,0 h -43.752 c -3.101,0 -4.65,1.76 -4.65,5.263 v 321.145 c 0,3.503 1.549,5.263 4.65,5.263 H 0 c 3.1,0 4.657,-1.76 4.657,-5.263 V 5.263 C 4.657,1.76 3.1,0 0,0"
               style="fill:#ffffff;fill-opacity:1;fill-rule:nonzero;stroke:none"
               id="path84" /></g><g
             id="g86"
             transform="translate(11068.536,465.3115)"><path
               d="m 0,0 h -39.555 c -1.566,0 -2.648,0.532 -3.261,1.582 -0.63,1.049 -1.098,2.276 -1.397,3.681 -0.314,1.404 -0.702,2.632 -1.171,3.689 -0.459,1.057 -1.162,1.582 -2.09,1.582 -2.785,0 -7.143,-1.76 -13.029,-5.271 C -66.403,1.76 -74.622,0 -85.172,0 c -12.1,0 -23.273,2.284 -33.509,6.845 -10.235,4.561 -19.009,10.882 -26.299,18.954 -7.298,8.072 -13.03,17.905 -17.219,29.48 -4.19,11.584 -6.288,24.218 -6.288,37.909 v 142.671 c 0,3.503 1.533,5.264 4.617,5.264 h 43.833 c 3.067,0 4.618,-1.761 4.618,-5.264 V 93.188 c 0,-10.882 3.115,-19.922 9.363,-27.116 6.249,-7.192 14.224,-10.793 23.911,-10.793 9.687,0 17.727,3.69 24.136,11.06 6.394,7.37 9.607,16.322 9.607,26.849 v 142.671 c 0,3.503 1.549,5.264 4.649,5.264 H 0 c 3.1,0 4.658,-1.761 4.658,-5.264 V 5.263 C 4.658,1.76 3.1,0 0,0"
               style="fill:#ffffff;fill-opacity:1;fill-rule:nonzero;stroke:none"
               id="path88" /></g><g
             id="g90"
             transform="translate(11226.779,460.8389)"><path
               d="m 0,0 c -1.558,-0.524 -4.035,-0.791 -7.45,-0.791 -9.93,0 -20.633,2.632 -32.113,7.895 -11.479,5.263 -21.101,12.109 -28.85,20.536 -14.902,16.144 -22.345,37.722 -22.345,64.757 v 92.656 c 0,3.503 -1.551,5.262 -4.65,5.262 h -24.2 c -3.117,0 -4.659,1.752 -4.659,5.263 l 0.928,27.899 54.926,65.806 3.253,1.582 h 22.805 c 3.099,0 4.657,-1.76 4.657,-5.263 v -34.744 c 0,-3.519 1.551,-5.262 4.658,-5.262 h 30.716 c 3.092,0 4.658,-1.761 4.658,-5.264 v -44.754 c 0,-3.511 -1.566,-5.263 -4.658,-5.263 H -33.04 c -3.107,0 -4.658,-1.759 -4.658,-5.262 V 92.397 c 0,-8.081 2.172,-15.362 6.514,-21.852 4.344,-6.498 9.308,-10.445 14.894,-11.843 6.515,-1.76 11.245,-2.897 14.199,-3.422 2.939,-0.533 4.425,-2.374 4.425,-5.53 V 4.473 C 2.334,2.026 1.55,0.533 0,0"
               style="fill:#ffffff;fill-opacity:1;fill-rule:nonzero;stroke:none"
               id="path92" /></g><g
             id="g94"
             transform="translate(11317.546,465.3115)"><path
               d="m 0,0 h -43.753 c -3.107,0 -4.657,1.76 -4.657,5.263 v 230.596 c 0,3.503 1.55,5.264 4.657,5.264 H 0 c 3.092,0 4.658,-1.761 4.658,-5.264 V 5.263 C 4.658,1.76 3.092,0 0,0 m 9.308,301.666 c 0,-9.478 -3.1,-17.728 -9.308,-24.75 -6.208,-7.023 -13.497,-10.527 -21.877,-10.527 -8.693,0 -16.056,3.423 -22.109,10.268 -6.046,6.845 -9.074,15.177 -9.074,25.009 0,9.815 3.028,18.163 9.074,25.008 6.053,6.838 13.416,10.26 22.109,10.26 8.38,0 15.669,-3.511 21.877,-10.526 6.208,-7.031 9.308,-15.265 9.308,-24.742"
               style="fill:#ffffff;fill-opacity:1;fill-rule:nonzero;stroke:none"
               id="path96" /></g><g
             id="g98"
             transform="translate(11489.755,618.5098)"><path
               d="m 0,0 c 0,10.534 -3.229,19.486 -9.688,26.849 -6.441,7.378 -14.384,11.058 -23.83,11.058 -10.057,0 -18.243,-3.68 -24.531,-11.058 C -64.346,19.486 -67.485,10.534 -67.485,0 v -65.273 c 0,-10.527 3.139,-19.488 9.436,-26.85 6.288,-7.378 14.474,-11.059 24.531,-11.059 9.446,0 17.389,3.681 23.83,11.059 C -3.229,-84.761 0,-75.8 0,-65.273 Z m 46.771,-103.44 c -4.181,-11.415 -10.009,-21.247 -17.453,-29.481 -7.442,-8.249 -16.515,-14.579 -27.219,-18.954 -10.712,-4.391 -22.578,-6.587 -35.617,-6.587 -13.028,0 -24.894,2.196 -35.598,6.587 -10.704,4.375 -19.859,10.705 -27.463,18.954 -7.604,8.234 -13.497,18.066 -17.686,29.481 -4.19,11.398 -6.289,24.121 -6.289,38.167 V 0 c 0,14.037 2.099,26.769 6.289,38.166 4.189,11.406 10.082,21.15 17.686,29.222 7.604,8.073 16.759,14.385 27.463,18.954 10.704,4.554 22.57,6.846 35.598,6.846 13.039,0 24.905,-2.292 35.617,-6.846 C 12.803,81.773 21.876,75.461 29.318,67.388 36.762,59.316 42.59,49.572 46.771,38.166 50.961,26.769 53.052,14.037 53.052,0 v -65.273 c 0,-14.046 -2.091,-26.769 -6.281,-38.167"
               style="fill:#ffffff;fill-opacity:1;fill-rule:nonzero;stroke:none"
               id="path100" /></g><g
             id="g102"
             transform="translate(11758.34,465.3115)"><path
               d="m 0,0 h -43.833 c -3.075,0 -4.609,1.76 -4.609,5.263 v 143.205 c 0,10.525 -3.124,19.389 -9.372,26.582 -6.257,7.192 -14.224,10.793 -23.911,10.793 -9.994,0 -18.114,-3.601 -24.363,-10.793 -6.256,-7.193 -9.379,-16.057 -9.379,-26.582 V 5.263 c 0,-3.503 -1.551,-5.263 -4.65,-5.263 h -43.753 c -3.1,0 -4.65,1.76 -4.65,5.263 v 230.596 c 0,3.503 1.55,5.264 4.65,5.264 h 39.563 c 1.865,0 3.091,-0.533 3.721,-1.583 0.622,-1.05 1.082,-2.293 1.398,-3.681 0.306,-1.404 0.621,-2.631 0.927,-3.689 0.307,-1.057 0.937,-1.573 1.865,-1.573 1.236,0 2.947,0.516 5.126,1.573 2.164,1.058 4.803,2.285 7.911,3.689 3.1,1.388 6.749,2.631 10.93,3.681 4.198,1.05 8.92,1.583 14.2,1.583 11.793,0 22.723,-2.293 32.814,-6.846 10.074,-4.569 18.849,-10.881 26.3,-18.954 7.442,-8.073 13.255,-17.816 17.452,-29.222 4.182,-11.406 6.28,-23.951 6.28,-37.633 V 5.263 C 4.617,1.76 3.076,0 0,0"
               style="fill:#ffffff;fill-opacity:1;fill-rule:nonzero;stroke:none"
               id="path104" /></g><g
             id="g106"
             transform="translate(11956.106,693.793)"><path
               d="m 0,0 c 4.334,-3.504 8.217,-7.459 11.632,-11.843 3.415,-4.391 6.28,-8.604 8.613,-12.633 2.333,-4.036 4.109,-7.814 5.353,-11.318 1.234,-3.519 1.856,-5.973 1.856,-7.378 0,-1.759 -0.92,-3.147 -2.793,-4.205 l -38.006,-21.061 c -0.629,-0.356 -1.395,-0.525 -2.324,-0.525 -1.227,0 -2.47,1.058 -3.705,3.156 -2.478,4.214 -4.723,8.073 -6.725,11.584 -2.009,3.511 -4.246,6.66 -6.724,9.477 -2.47,2.802 -5.327,4.997 -8.573,6.579 -3.237,1.582 -7.184,2.373 -11.818,2.373 h -13.44 c -17.009,0 -25.501,-6.667 -25.501,-20.003 0,-5.263 1.534,-9.219 4.618,-11.85 3.083,-2.632 7.393,-4.65 12.939,-6.054 5.538,-1.404 12.165,-2.81 19.867,-4.214 7.693,-1.404 16.314,-3.504 25.872,-6.314 18.921,-5.972 32.886,-14.045 41.896,-24.215 8.992,-10.189 13.497,-24.04 13.497,-41.59 0,-12.286 -1.873,-23.612 -5.587,-33.952 -3.729,-10.366 -9.081,-19.221 -16.064,-26.591 -6.974,-7.37 -15.435,-13.077 -25.362,-17.113 -9.93,-4.029 -20.941,-6.055 -33.049,-6.055 h -13.497 c -26.058,0 -46.239,8.598 -60.503,25.799 -7.145,8.428 -12.262,15.967 -15.362,22.635 -3.1,6.668 -4.65,11.229 -4.65,13.692 0,1.395 0.929,2.631 2.794,3.681 l 38.166,21.06 c 0.613,0.347 1.388,0.524 2.324,0.524 0.929,0 2.163,-1.226 3.722,-3.68 4.658,-8.783 9.145,-15.976 13.497,-21.585 4.343,-5.619 11.011,-8.429 20.012,-8.429 h 13.497 c 8.379,0 14.965,2.115 19.785,6.321 4.803,4.214 7.208,9.647 7.208,16.315 0,5.27 -1.533,9.13 -4.616,11.592 -3.084,2.446 -7.395,4.375 -12.941,5.788 -5.546,1.396 -12.246,2.712 -20.092,3.947 -7.854,1.227 -16.564,3.245 -26.106,6.054 -18.776,5.263 -32.629,13.158 -41.549,23.685 -8.92,10.534 -13.376,24.749 -13.376,42.655 0,11.922 1.938,22.893 5.819,32.903 3.876,9.993 9.228,18.599 16.057,25.791 6.821,7.192 15.047,12.81 24.67,16.847 9.606,4.028 20.164,6.054 31.644,6.054 h 13.497 C -32.12,17.904 -14.28,11.931 0,0"
               style="fill:#ffffff;fill-opacity:1;fill-rule:nonzero;stroke:none"
               id="path108" /></g><g
             id="g110"
             transform="translate(12165.585,465.3115)"><path
               d="m 0,0 h -43.841 c -3.067,0 -4.601,1.76 -4.601,5.263 v 321.145 c 0,3.503 1.534,5.263 4.601,5.263 H 0 c 3.076,0 4.609,-1.76 4.609,-5.263 V 5.263 C 4.609,1.76 3.076,0 0,0"
               style="fill:#0071ce;fill-opacity:1;fill-rule:nonzero;stroke:none"
               id="path112" /></g><g
             id="g114"
             transform="translate(12377.309,741.7021)"><path
               d="m 0,0 h -50.735 c -3.1,0 -4.65,-1.76 -4.65,-5.263 v -265.865 c 0,-3.503 -1.558,-5.263 -4.649,-5.263 h -43.753 c -3.109,0 -4.658,1.76 -4.658,5.263 V -5.263 c 0,3.503 -1.558,5.263 -4.658,5.263 h -50.727 c -3.107,0 -4.649,1.752 -4.649,5.271 v 44.747 c 0,3.503 1.542,5.262 4.649,5.262 H 0 c 3.1,0 4.658,-1.759 4.658,-5.262 V 5.271 C 4.658,1.752 3.1,0 0,0"
               style="fill:#ffffff;fill-opacity:1;fill-rule:nonzero;stroke:none"
               id="path116" /></g><g
             id="g118"
             transform="translate(3271.3882,1065.9629)"
             style="fill:#ffffff"><path
               d="m 0,0 v 649.544 c 0,96.565 -18.83,167.013 -56.479,211.355 -37.666,44.326 -95.36,66.5 -173.093,66.5 -101.434,0 -176.434,-27.943 -225.018,-83.811 -48.597,-55.886 -72.878,-143.641 -72.878,-263.277 V 0 h -92.013 v 676.876 c 0,167.011 -76.522,250.523 -229.572,250.523 -103.855,0 -179.466,-30.218 -226.839,-90.644 -47.372,-60.439 -71.057,-157.146 -71.057,-290.155 V 0 h -90.189 v 990.26 h 74.702 l 19.132,-135.739 h 5.465 c 27.329,49.194 66.189,87.299 116.605,114.331 50.405,27.013 105.979,40.54 166.716,40.54 156.08,0 256.291,-58.619 300.629,-175.826 h 3.645 c 32.184,56.483 75.457,99.9 129.816,130.272 54.348,30.365 116.154,45.554 185.391,45.554 108.094,0 189.173,-28.856 243.239,-86.545 C 62.25,865.137 89.281,773.442 89.281,647.723 V 0 Z"
               style="fill:#ffffff;fill-opacity:1;fill-rule:nonzero;stroke:none"
               id="path120" /></g><path
             d="m 3603.616,1065.963 h -90.189 v 990.26 h 90.189 z m -102.943,1265.384 c 0,58.302 19.131,87.456 57.39,87.456 18.821,0 33.553,-7.604 44.185,-22.777 10.619,-15.188 15.943,-36.754 15.943,-64.679 0,-27.333 -5.324,-48.899 -15.943,-64.685 -10.632,-15.798 -25.364,-23.684 -44.185,-23.684 -38.259,0 -57.39,29.452 -57.39,88.369"
             style="fill:#ffffff;fill-opacity:1;fill-rule:nonzero;stroke:none"
             id="path122" /><g
             id="g124"
             transform="translate(4162.6792,1047.7432)"
             style="fill:#ffffff"><path
               d="m 0,0 c -141.518,0 -252.348,44.641 -332.515,133.914 -80.171,89.28 -120.255,213.773 -120.255,373.515 0,163.979 41.593,291.664 124.808,383.076 83.202,91.4 197.076,137.106 341.624,137.106 85.637,0 167.628,-14.889 245.971,-44.64 L 235.037,902.803 C 149.404,931.344 75,945.619 11.842,945.619 c -121.478,0 -213.487,-37.509 -276.032,-112.509 -62.561,-75.012 -93.833,-182.969 -93.833,-323.861 0,-133.619 31.272,-238.226 93.833,-313.839 62.545,-75.615 150.002,-113.418 262.366,-113.418 89.878,0 173.391,16.08 250.527,48.281 V 46.458 C 185.528,15.492 102.628,0 0,0"
               style="fill:#ffffff;fill-opacity:1;fill-rule:nonzero;stroke:none"
               id="path126" /></g><g
             id="g128"
             transform="translate(4875.7031,2075.3545)"
             style="fill:#ffffff"><path
               d="m 0,0 c 41.904,0 86.844,-4.259 134.825,-12.755 l -17.306,-86.544 c -41.311,10.32 -84.128,15.486 -128.453,15.486 -84.425,0 -153.658,-35.84 -207.707,-107.499 -54.065,-71.671 -81.08,-162.16 -81.08,-271.48 v -546.6 h -90.188 v 990.26 h 76.522 l 9.109,-178.558 h 6.378 c 40.681,72.881 84.11,124.041 130.273,153.505 C -121.478,-14.733 -65.592,0 0,0"
               style="fill:#ffffff;fill-opacity:1;fill-rule:nonzero;stroke:none"
               id="path130" /></g><g
             id="g132"
             transform="translate(5081.2959,1562.4609)"
             style="fill:#ffffff"><path
               d="m 0,0 c 0,-136.053 29.904,-242.184 89.732,-318.396 59.813,-76.227 144.396,-114.33 253.712,-114.33 109.321,0 193.888,38.103 253.717,114.33 59.812,76.212 89.732,182.343 89.732,318.396 0,136.65 -30.219,242.625 -90.645,317.937 C 535.81,393.24 450.945,430.901 341.624,430.901 232.304,430.901 148.036,393.393 88.82,318.393 29.605,243.38 0,137.247 0,0 m 781.64,0 c 0,-161.561 -39.176,-287.737 -117.523,-378.527 -78.343,-90.799 -186.452,-136.191 -324.313,-136.191 -86.859,0 -163.386,20.948 -229.576,62.861 -66.202,41.904 -116.92,102.036 -152.136,180.378 -35.229,78.343 -52.838,168.834 -52.838,271.479 0,161.546 39.175,287.418 117.518,377.607 78.347,90.19 185.847,135.287 322.497,135.287 136.037,0 242.782,-45.707 320.216,-137.107 C 742.92,284.375 781.64,159.111 781.64,0"
               style="fill:#ffffff;fill-opacity:1;fill-rule:nonzero;stroke:none"
               id="path134" /></g><g
             id="g136"
             transform="translate(6723.5396,1382.9912)"
             style="fill:#ffffff"><path
               d="m 0,0 c 0,-110.544 -37.662,-194.045 -112.962,-250.527 -75.315,-56.475 -183.425,-84.721 -324.317,-84.721 -76.523,0 -143.027,4.102 -199.51,12.295 -56.482,8.201 -114.188,23.232 -173.088,45.093 V 7.289 c 55.255,-24.297 115.838,-44.341 181.742,-60.123 65.891,-15.806 124.65,-23.685 176.281,-23.685 77.121,0 115.694,17.598 115.694,52.834 0,18.219 -10.789,34.461 -32.338,48.738 -21.565,14.263 -84.268,42.05 -188.123,83.355 -94.743,38.862 -160.948,83.045 -198.598,132.554 -37.666,49.492 -56.482,112.193 -56.482,188.119 0,95.957 37.039,170.659 111.14,224.106 74.093,53.44 178.857,80.171 314.299,80.171 68.011,0 131.936,-7.446 191.765,-22.32 59.812,-14.889 121.918,-36.596 186.299,-65.136 l -96.567,-229.576 c -47.372,21.255 -97.477,39.318 -150.315,54.206 -52.838,14.874 -95.965,22.321 -129.36,22.321 -58.304,0 -87.457,-14.276 -87.457,-42.816 0,-17.622 10.163,-32.656 30.518,-45.097 20.342,-12.456 79.101,-37.807 176.281,-76.066 72.267,-29.768 126.171,-58.916 161.702,-87.457 35.527,-28.556 61.633,-62.105 78.347,-100.667 C -8.355,102.177 0,55.26 0,0"
               style="fill:#ffffff;fill-opacity:1;fill-rule:nonzero;stroke:none"
               id="path138" /></g><g
             id="g140"
             transform="translate(6703.1362,2098.126)"
             style="fill:#ffffff"><path
               d="m 0,0 h 375.335 l 174.913,-592.147 c 8.493,-30.975 14.255,-68.326 17.307,-112.054 h 7.281 c 4.86,41.904 12.142,78.646 21.869,110.229 L 776.171,0 h 363.493 L 731.539,-1097.759 c -52.246,-139.678 -116.469,-238.362 -192.681,-296.072 -76.228,-57.693 -175.68,-86.544 -298.357,-86.544 -47.369,0 -95.972,5.166 -145.762,15.482 v 279.677 c 32.192,-7.281 68.921,-10.93 110.236,-10.93 31.57,0 59.22,6.087 82.903,18.228 23.685,12.156 44.318,29.302 61.948,51.47 17.606,22.175 36.439,58.461 56.475,108.864 z"
               style="fill:#ffffff;fill-opacity:1;fill-rule:nonzero;stroke:none"
               id="path142" /></g><g
             id="g144"
             transform="translate(8669.625,1382.9912)"
             style="fill:#ffffff"><path
               d="m 0,0 c 0,-110.544 -37.666,-194.045 -112.966,-250.527 -75.315,-56.475 -183.422,-84.721 -324.317,-84.721 -76.527,0 -143.027,4.102 -199.509,12.295 -56.483,8.201 -114.185,23.232 -173.09,45.093 V 7.289 c 55.256,-24.297 115.84,-44.341 181.742,-60.123 65.896,-15.806 124.647,-23.685 176.278,-23.685 77.124,0 115.694,17.598 115.694,52.834 0,18.219 -10.785,34.461 -32.338,48.738 -21.561,14.263 -84.26,42.05 -188.12,83.355 -94.737,38.862 -160.947,83.045 -198.598,132.554 -37.665,49.492 -56.482,112.193 -56.482,188.119 0,95.957 37.045,170.659 111.142,224.106 74.096,53.44 178.86,80.171 314.298,80.171 68.01,0 131.936,-7.446 191.769,-22.32 59.809,-14.889 121.909,-36.596 186.295,-65.136 l -96.562,-229.576 c -47.378,21.255 -97.483,39.318 -150.325,54.206 -52.834,14.874 -95.965,22.321 -129.351,22.321 -58.308,0 -87.457,-14.276 -87.457,-42.816 0,-17.622 10.155,-32.656 30.513,-45.097 20.343,-12.456 79.102,-37.807 176.285,-76.066 72.265,-29.768 126.173,-58.916 161.699,-87.457 35.527,-28.556 61.633,-62.105 78.342,-100.667 C -8.363,102.177 0,55.26 0,0"
               style="fill:#ffffff;fill-opacity:1;fill-rule:nonzero;stroke:none"
               id="path146" /></g><g
             id="g148"
             transform="translate(9244.1055,1047.7432)"
             style="fill:#ffffff"><path
               d="m 0,0 c -168.85,0 -296.847,45.554 -383.988,136.65 -87.158,91.098 -130.724,221.971 -130.724,392.643 0,171.268 47.053,303.963 141.202,398.106 94.124,94.133 228.046,141.207 401.748,141.207 119.641,0 232.308,-26.122 337.984,-78.346 L 261.458,726.978 c -43.131,18.821 -82.904,33.851 -119.343,45.096 -36.438,11.23 -74.403,16.852 -113.877,16.852 -57.702,0 -102.342,-22.474 -133.922,-67.413 -31.579,-44.951 -47.369,-108.409 -47.369,-190.4 0,-165.202 61.044,-247.796 183.115,-247.796 104.458,0 204.661,30.37 300.633,91.106 V 91.098 C 238.977,30.361 128.747,0 0,0"
               style="fill:#ffffff;fill-opacity:1;fill-rule:nonzero;stroke:none"
               id="path150" /></g><g
             id="g152"
             transform="translate(10003.511,1584.3252)"
             style="fill:#ffffff"><path
               d="m 0,0 c 0,-88.684 11.85,-156.238 35.534,-202.698 23.685,-46.465 63.449,-69.698 119.343,-69.698 55.256,0 94.286,23.233 117.058,69.698 22.772,46.46 34.163,114.014 34.163,202.698 0,88.054 -11.544,154.555 -34.623,199.506 -23.087,44.939 -62.553,67.416 -118.422,67.416 -54.667,0 -93.834,-22.32 -117.519,-66.96 C 11.85,155.325 0,88.663 0,0 m 668.678,0 c 0,-168.851 -45.407,-300.487 -136.19,-394.919 -90.806,-94.447 -217.89,-141.663 -381.259,-141.663 -156.694,0 -281.357,48.282 -373.963,144.844 -92.623,96.57 -138.927,227.145 -138.927,391.738 0,168.221 45.384,298.949 136.189,392.186 90.791,93.22 218.19,139.838 382.164,139.838 101.423,0 191.002,-21.564 268.748,-64.684 C 503.169,424.214 563.146,362.419 605.366,281.953 647.568,201.472 668.678,107.496 668.678,0"
               style="fill:#ffffff;fill-opacity:1;fill-rule:nonzero;stroke:none"
               id="path154" /></g><g
             id="g156"
             transform="translate(12049.262,1065.9629)"
             style="fill:#ffffff"><path
               d="m 0,0 v 561.179 c 0,69.835 -9.566,122.217 -28.697,157.145 -19.132,34.917 -49.355,52.382 -90.646,52.382 -54.658,0 -94.746,-23.386 -120.255,-70.145 -25.508,-46.776 -38.262,-119.953 -38.262,-219.549 V 0 h -357.108 v 561.179 c 0,69.835 -9.113,122.217 -27.333,157.145 -18.22,34.917 -47.684,52.382 -88.361,52.382 -55.894,0 -96.57,-24.907 -122.078,-74.702 -25.51,-49.803 -38.264,-131.181 -38.264,-244.147 V 0 h -356.203 v 1032.163 h 268.746 l 44.641,-127.54 h 20.947 c 27.334,47.373 66.97,83.501 118.892,108.413 51.92,24.895 110.978,37.351 177.189,37.351 148.79,0 253.264,-45.254 313.387,-135.741 h 28.237 c 29.158,42.504 69.697,75.754 121.619,99.753 51.93,23.989 109.163,35.988 171.725,35.988 122.079,0 212.263,-31.288 270.563,-93.833 58.307,-62.562 87.456,-157.607 87.456,-285.147 V 0 Z"
               style="fill:#ffffff;fill-opacity:1;fill-rule:nonzero;stroke:none"
               id="path158" /></g></g></g></g></g></svg>
