<svg width="300" height="57" viewBox="0 0 300 57" fill="none" xmlns="http://www.w3.org/2000/svg">
<g clip-path="url(#clip0_1440_653)">
<path d="M0.539673 42.6133V36.3861H27.2621C28.9289 36.3861 30.2119 35.9611 31.1109 35.1114C32.0097 34.2614 32.4591 33.1336 32.4591 31.7282C32.4591 30.1918 32.0097 29.0394 31.1109 28.2715C30.2119 27.5034 28.9289 27.1193 27.2621 27.1193L10.8853 27.1191C9.21846 27.1191 7.70652 26.8659 6.34996 26.3593C4.9934 25.8523 3.8491 25.1496 2.91752 24.2508C1.98594 23.3519 1.26685 22.2813 0.760254 21.039C0.253418 19.7971 0 18.4403 0 16.9695C0 15.5314 0.236999 14.1991 0.711236 12.9734C1.18523 11.7477 1.8879 10.6936 2.81972 9.81079C3.7513 8.92823 4.90346 8.23389 6.27644 7.72729C7.64918 7.22021 9.21822 6.96704 10.9833 6.96704H36.5778V13.1942H10.9833C9.54517 13.1942 8.4337 13.5783 7.64941 14.3466C6.86489 15.1145 6.47274 16.1853 6.47274 17.5582C6.47274 18.931 6.87322 19.9932 7.67392 20.7451C8.47463 21.4968 9.56159 21.873 10.9346 21.873H27.2623C30.8903 21.873 33.6444 22.7227 35.524 24.4229C37.4035 26.1223 38.3432 28.7048 38.3432 32.1699C38.3432 33.6735 38.1143 35.0629 37.6567 36.3373C37.1994 37.6123 36.5126 38.7154 35.5975 39.647C34.6821 40.5786 33.5299 41.306 32.1408 41.829C30.7514 42.352 29.1254 42.6133 27.2623 42.6133L0.539911 42.6135L0.539673 42.6133ZM43.6876 42.6133V6.96704H75.509V13.1942H49.8657V36.3864H75.558V42.6135H43.6876V42.6133ZM49.8538 27.1191L54.4254 21.8728H74.1853L69.6135 27.1191H49.8538ZM97.1809 42.6133C94.6967 42.6133 92.4004 42.1474 90.292 41.2158C88.1835 40.2842 86.3531 39.0098 84.8005 37.3915C83.2477 35.7734 82.0384 33.8531 81.1725 31.6302C80.3061 29.4075 79.873 27.0049 79.873 24.4226C79.873 21.8076 80.3061 19.4214 81.1725 17.2637C82.0386 15.1064 83.2481 13.2677 84.8005 11.7475C86.3534 10.2274 88.1837 9.05077 90.292 8.21723C92.4004 7.38369 94.6967 6.9668 97.1809 6.9668H116.5V13.194H97.1809C95.5792 13.194 94.1004 13.48 92.7436 14.052C91.387 14.6243 90.2184 15.4167 89.2378 16.4301C88.2572 17.4433 87.4891 18.6528 86.9335 20.0584C86.3777 21.464 86.1 23.0168 86.1 24.7165C86.1 26.3836 86.3777 27.9362 86.9335 29.3746C87.4891 30.8128 88.2572 32.0468 89.2378 33.0767C90.2184 34.1063 91.3872 34.9156 92.7436 35.5036C94.1001 36.0922 95.5792 36.3861 97.1809 36.3861L116.5 36.3859V42.6131H97.1809V42.6133ZM132.974 42.6133V13.1942H119.442V6.96704H152.734V13.1942H139.201V42.6133H132.974ZM172.298 42.6133C169.813 42.6133 167.517 42.1474 165.409 41.2158C163.3 40.2842 161.47 39.0098 159.917 37.3915C158.365 35.7734 157.155 33.8531 156.289 31.6302C155.423 29.4075 154.99 27.0049 154.99 24.4226C154.99 21.8076 155.423 19.4214 156.289 17.2637C157.155 15.1064 158.365 13.2677 159.917 11.7475C161.47 10.2274 163.3 9.05077 165.409 8.21723C167.517 7.38369 169.813 6.9668 172.298 6.9668H180.976C183.559 6.9668 185.921 7.39178 188.062 8.24174C190.202 9.0917 192.041 10.2848 193.578 11.8208C195.114 13.3574 196.307 15.1959 197.157 17.3372C198.007 19.478 198.432 21.8399 198.432 24.4222C198.432 27.0044 197.998 29.407 197.132 31.6297C196.266 33.8526 195.056 35.7732 193.504 37.391C191.951 39.009 190.113 40.284 187.988 41.2156C185.863 42.1471 183.526 42.6131 180.976 42.6131L172.298 42.6128L172.298 42.6133ZM180.976 36.3861C182.611 36.3861 184.114 36.0922 185.487 35.5036C186.86 34.9151 188.045 34.1061 189.042 33.0767C190.039 32.0468 190.816 30.8131 191.371 29.3746C191.927 27.9362 192.204 26.3836 192.204 24.7163C192.204 23.0494 191.927 21.5049 191.371 20.0829C190.815 18.6607 190.039 17.4433 189.042 16.4301C188.045 15.4164 186.86 14.6238 185.487 14.052C184.114 13.4798 182.611 13.194 180.976 13.194H172.298C170.696 13.194 169.217 13.48 167.86 14.052C166.504 14.6243 165.335 15.4167 164.354 16.4301C163.374 17.4433 162.606 18.6528 162.05 20.0584C161.495 21.464 161.217 23.0168 161.217 24.7165C161.217 26.3836 161.495 27.9362 162.05 29.3746C162.606 30.8128 163.374 32.0468 164.354 33.0767C165.335 34.1063 166.504 34.9156 167.86 35.5036C169.217 36.0922 170.696 36.3861 172.298 36.3861L180.976 36.3859V36.3861ZM241.529 48.2711L226.991 32.7086H214.22V27.2171H229.077C231.332 27.2171 233.032 26.6042 234.176 25.3785C235.32 24.1528 235.892 22.3791 235.892 20.0584C235.892 17.7377 235.296 16.0132 234.102 14.8856C232.909 13.7577 231.234 13.1942 229.076 13.1942L209.66 13.194V42.6131H203.482V6.9668H229.076C231.103 6.9668 232.917 7.26923 234.519 7.8741C236.121 8.47898 237.477 9.34512 238.588 10.4728C239.7 11.6007 240.549 12.9651 241.138 14.567C241.727 16.1686 242.021 17.9666 242.021 19.9604C242.021 22.9347 241.375 25.4278 240.084 27.4375C238.793 29.4479 237.469 30.6998 235.148 31.5824L250.354 48.2711H241.529H241.529Z" fill="#050A73"/>
<path fill-rule="evenodd" clip-rule="evenodd" d="M257.5 3.90359C257.859 1.84079 259.047 0.482803 261.264 0H298.487L294.444 8.36469H270.57C267.278 8.37088 265.241 9.71745 265.168 12.5469V24.118H274.09V21.4691C274.317 18.8433 275.908 17.3102 279.388 17.2869H284.546L267.12 56.7397L266.928 48.2705L257.361 48.3926L257.501 3.90335L257.5 3.90359Z" fill="#1919B3"/>
<path fill-rule="evenodd" clip-rule="evenodd" d="M299.985 41.962L299.707 7.38818L281.723 47.9565H293.154C297.673 48.1994 300.207 46.4586 299.986 41.9618L299.985 41.962Z" fill="#050A73"/>
</g>
<defs>
<clipPath id="clip0_1440_653">
<rect width="300" height="56.7397" fill="white"/>
</clipPath>
</defs>
</svg>
